<mxfile host="app.diagrams.net" agent="Mozilla/5.0 (Macintosh; Intel Mac OS X 10_15_7) AppleWebKit/537.36 (KHTML, like Gecko) Chrome/140.0.0.0 Safari/537.36" version="28.2.0">
  <diagram name="Page-1" id="YDHhIk46RyTXh9LSPzu3">
    <mxGraphModel dx="976" dy="565" grid="1" gridSize="10" guides="1" tooltips="1" connect="1" arrows="1" fold="1" page="1" pageScale="1" pageWidth="850" pageHeight="1100" math="0" shadow="0">
      <root>
        <mxCell id="0" />
        <mxCell id="1" parent="0" />
        <mxCell id="hH-htTxVrFFnzAHh6rzm-9" style="edgeStyle=orthogonalEdgeStyle;rounded=0;orthogonalLoop=1;jettySize=auto;html=1;exitX=0.5;exitY=1;exitDx=0;exitDy=0;entryX=0.5;entryY=0;entryDx=0;entryDy=0;" parent="1" source="hH-htTxVrFFnzAHh6rzm-1" target="hH-htTxVrFFnzAHh6rzm-2" edge="1">
          <mxGeometry relative="1" as="geometry" />
        </mxCell>
        <mxCell id="hH-htTxVrFFnzAHh6rzm-1" value="User" style="rounded=1;whiteSpace=wrap;html=1;" parent="1" vertex="1">
          <mxGeometry x="240" y="80" width="120" height="40" as="geometry" />
        </mxCell>
        <mxCell id="hH-htTxVrFFnzAHh6rzm-10" style="edgeStyle=orthogonalEdgeStyle;rounded=0;orthogonalLoop=1;jettySize=auto;html=1;exitX=0.5;exitY=1;exitDx=0;exitDy=0;" parent="1" source="hH-htTxVrFFnzAHh6rzm-2" target="hH-htTxVrFFnzAHh6rzm-3" edge="1">
          <mxGeometry relative="1" as="geometry" />
        </mxCell>
        <mxCell id="hH-htTxVrFFnzAHh6rzm-2" value="Application" style="rounded=1;whiteSpace=wrap;html=1;" parent="1" vertex="1">
          <mxGeometry x="240" y="160" width="120" height="40" as="geometry" />
        </mxCell>
        <mxCell id="hH-htTxVrFFnzAHh6rzm-16" style="edgeStyle=orthogonalEdgeStyle;rounded=0;orthogonalLoop=1;jettySize=auto;html=1;exitX=1;exitY=0.75;exitDx=0;exitDy=0;entryX=0;entryY=0.5;entryDx=0;entryDy=0;" parent="1" source="hH-htTxVrFFnzAHh6rzm-3" target="hH-htTxVrFFnzAHh6rzm-5" edge="1">
          <mxGeometry relative="1" as="geometry" />
        </mxCell>
        <mxCell id="ex01ChmMZHe_xm1qarhg-1" style="edgeStyle=orthogonalEdgeStyle;rounded=0;orthogonalLoop=1;jettySize=auto;html=1;exitX=0.5;exitY=1;exitDx=0;exitDy=0;entryX=0.5;entryY=0;entryDx=0;entryDy=0;" edge="1" parent="1" source="hH-htTxVrFFnzAHh6rzm-3" target="hH-htTxVrFFnzAHh6rzm-7">
          <mxGeometry relative="1" as="geometry" />
        </mxCell>
        <mxCell id="ex01ChmMZHe_xm1qarhg-4" style="edgeStyle=orthogonalEdgeStyle;rounded=0;orthogonalLoop=1;jettySize=auto;html=1;exitX=0;exitY=0.5;exitDx=0;exitDy=0;" edge="1" parent="1" source="hH-htTxVrFFnzAHh6rzm-3">
          <mxGeometry relative="1" as="geometry">
            <mxPoint x="160" y="260" as="targetPoint" />
          </mxGeometry>
        </mxCell>
        <mxCell id="hH-htTxVrFFnzAHh6rzm-3" value="Harmful content detection service" style="rounded=1;whiteSpace=wrap;html=1;" parent="1" vertex="1">
          <mxGeometry x="240" y="240" width="120" height="40" as="geometry" />
        </mxCell>
        <mxCell id="hH-htTxVrFFnzAHh6rzm-17" style="edgeStyle=orthogonalEdgeStyle;rounded=0;orthogonalLoop=1;jettySize=auto;html=1;exitX=1;exitY=0.5;exitDx=0;exitDy=0;entryX=0;entryY=0.5;entryDx=0;entryDy=0;" parent="1" source="hH-htTxVrFFnzAHh6rzm-4" target="hH-htTxVrFFnzAHh6rzm-8" edge="1">
          <mxGeometry relative="1" as="geometry" />
        </mxCell>
        <mxCell id="hH-htTxVrFFnzAHh6rzm-4" value="Demoting service" style="rounded=1;whiteSpace=wrap;html=1;" parent="1" vertex="1">
          <mxGeometry x="440" y="200" width="120" height="40" as="geometry" />
        </mxCell>
        <mxCell id="hH-htTxVrFFnzAHh6rzm-5" value="Violation enforcement service" style="rounded=1;whiteSpace=wrap;html=1;" parent="1" vertex="1">
          <mxGeometry x="440" y="280" width="120" height="40" as="geometry" />
        </mxCell>
        <mxCell id="ex01ChmMZHe_xm1qarhg-3" style="edgeStyle=orthogonalEdgeStyle;rounded=0;orthogonalLoop=1;jettySize=auto;html=1;exitX=1;exitY=0.5;exitDx=0;exitDy=0;entryX=0;entryY=0.5;entryDx=0;entryDy=0;" edge="1" parent="1" source="hH-htTxVrFFnzAHh6rzm-6" target="hH-htTxVrFFnzAHh6rzm-3">
          <mxGeometry relative="1" as="geometry" />
        </mxCell>
        <mxCell id="hH-htTxVrFFnzAHh6rzm-6" value="Feature preparation" style="rounded=1;whiteSpace=wrap;html=1;" parent="1" vertex="1">
          <mxGeometry x="40" y="240" width="120" height="40" as="geometry" />
        </mxCell>
        <mxCell id="ex01ChmMZHe_xm1qarhg-2" style="edgeStyle=orthogonalEdgeStyle;rounded=0;orthogonalLoop=1;jettySize=auto;html=1;exitX=0.5;exitY=0;exitDx=0;exitDy=0;entryX=0.5;entryY=1;entryDx=0;entryDy=0;" edge="1" parent="1" source="hH-htTxVrFFnzAHh6rzm-7" target="hH-htTxVrFFnzAHh6rzm-3">
          <mxGeometry relative="1" as="geometry" />
        </mxCell>
        <mxCell id="hH-htTxVrFFnzAHh6rzm-7" value="Trained ML model" style="rounded=1;whiteSpace=wrap;html=1;" parent="1" vertex="1">
          <mxGeometry x="240" y="320" width="120" height="40" as="geometry" />
        </mxCell>
        <mxCell id="hH-htTxVrFFnzAHh6rzm-8" value="Post that need manual review" style="rounded=1;whiteSpace=wrap;html=1;" parent="1" vertex="1">
          <mxGeometry x="640" y="200" width="120" height="40" as="geometry" />
        </mxCell>
        <mxCell id="hH-htTxVrFFnzAHh6rzm-15" style="edgeStyle=orthogonalEdgeStyle;rounded=0;orthogonalLoop=1;jettySize=auto;html=1;exitX=1;exitY=0.25;exitDx=0;exitDy=0;entryX=0;entryY=0.4;entryDx=0;entryDy=0;entryPerimeter=0;" parent="1" source="hH-htTxVrFFnzAHh6rzm-3" target="hH-htTxVrFFnzAHh6rzm-4" edge="1">
          <mxGeometry relative="1" as="geometry" />
        </mxCell>
        <mxCell id="hH-htTxVrFFnzAHh6rzm-18" value="Harm detected with low confidence" style="text;html=1;strokeColor=none;fillColor=none;align=center;verticalAlign=middle;whiteSpace=wrap;rounded=0;" parent="1" vertex="1">
          <mxGeometry x="390" y="165" width="240" height="30" as="geometry" />
        </mxCell>
        <mxCell id="hH-htTxVrFFnzAHh6rzm-19" value="Harm detected with high confidence" style="text;html=1;strokeColor=none;fillColor=none;align=center;verticalAlign=middle;whiteSpace=wrap;rounded=0;" parent="1" vertex="1">
          <mxGeometry x="400" y="325" width="240" height="30" as="geometry" />
        </mxCell>
      </root>
    </mxGraphModel>
  </diagram>
</mxfile>
